<svg width="34" height="34" viewBox="0 0 34 34" fill="none" xmlns="http://www.w3.org/2000/svg">
    <g clip-path="url(#clip0_0_1)">
        <path d="M16.7866 24.0001C16.5671 23.9563 16.3415 23.9315 16.1296 23.8629C15.2485 23.5799 14.8217 22.8884 14.9147 21.9752C14.9863 21.2574 15.2257 20.5819 15.4177 19.8919C15.5946 19.2602 15.776 18.6285 15.9437 17.9954C16.0229 17.6948 16.0504 17.387 15.9894 17.0777C15.9391 16.8224 15.7866 16.6649 15.5184 16.6094C15.1418 16.5307 14.7729 16.5642 14.4086 16.6751C14.279 16.7145 14.151 16.7553 13.9985 16.802C14.061 16.5569 14.1174 16.3337 14.1784 16.112C14.186 16.0828 14.2241 16.0492 14.2546 16.0376C14.8598 15.8158 15.4589 15.5707 16.1007 15.4613C16.7333 15.3533 17.3598 15.3665 17.9528 15.6437C18.5717 15.934 18.8994 16.5584 18.872 17.2178C18.8354 18.1077 18.5123 18.9276 18.2836 19.7723C18.1342 20.3237 17.9757 20.8737 17.8369 21.4266C17.7668 21.7053 17.7257 21.9927 17.7851 22.2815C17.8537 22.6098 18.0138 22.7498 18.3583 22.8053C18.8126 22.8811 19.2455 22.7921 19.6708 22.6506C19.7119 22.6375 19.7516 22.6229 19.8141 22.601C19.7516 22.8446 19.6967 23.0722 19.6342 23.2998C19.6266 23.3261 19.59 23.3523 19.5595 23.3625C19.0809 23.5332 18.6037 23.7127 18.1174 23.8659C17.8934 23.9373 17.6525 23.9563 17.4193 23.9986H16.7821L16.7866 24.0001Z" fill="#102E00"/>
        <path d="M18.3125 14.0562C17.6022 14.0271 16.9589 13.6332 16.718 13.0555C16.4177 12.3362 16.7622 11.5339 17.5275 11.1721C18.2409 10.8336 19.1189 11.0057 19.6372 11.5835C20.3369 12.3639 19.9848 13.5602 18.9406 13.922C18.7409 13.9906 18.5229 14.0125 18.3125 14.0562Z" fill="#102E00"/>
    </g>
    <circle cx="17" cy="17" r="16.5" stroke="#102E00"/>
    <defs>
        <clipPath id="clip0_0_1">
            <rect width="6" height="13" fill="white" transform="translate(14 11)"/>
        </clipPath>
    </defs>
</svg>
